<svg width="28" height="28" viewBox="0 0 28 28" fill="none" xmlns="http://www.w3.org/2000/svg">
    <path d="M25.1998 4.66663H16.7998V28H27.0665V6.53329C27.0665 6.03822 26.8698 5.56343 26.5197 5.21336C26.1697 4.86329 25.6949 4.66663 25.1998 4.66663ZM20.5331 20.5333H18.6665V18.6666H20.5331V20.5333ZM20.5331 15.8666H18.6665V14H20.5331V15.8666ZM20.5331 11.2H18.6665V9.33329H20.5331V11.2ZM24.2665 20.5333H22.3998V18.6666H24.2665V20.5333ZM24.2665 15.8666H22.3998V14H24.2665V15.8666ZM24.2665 11.2H22.3998V9.33329H24.2665V11.2Z" fill="black"/>
    <path d="M12.9547 0H1.97867C1.45389 0 0.95061 0.208466 0.579538 0.579538C0.208466 0.95061 0 1.45389 0 1.97867V28H4.66667V25.2H10.2667V28H14.9333V1.97867C14.9333 1.45389 14.7249 0.95061 14.3538 0.579538C13.9827 0.208466 13.4794 0 12.9547 0ZM4.66667 20.5333H2.8V18.6667H4.66667V20.5333ZM4.66667 15.8667H2.8V14H4.66667V15.8667ZM4.66667 11.2H2.8V9.33333H4.66667V11.2ZM4.66667 6.53333H2.8V4.66667H4.66667V6.53333ZM8.4 20.5333H6.53333V18.6667H8.4V20.5333ZM8.4 15.8667H6.53333V14H8.4V15.8667ZM8.4 11.2H6.53333V9.33333H8.4V11.2ZM8.4 6.53333H6.53333V4.66667H8.4V6.53333ZM12.1333 20.5333H10.2667V18.6667H12.1333V20.5333ZM12.1333 15.8667H10.2667V14H12.1333V15.8667ZM12.1333 11.2H10.2667V9.33333H12.1333V11.2ZM12.1333 6.53333H10.2667V4.66667H12.1333V6.53333Z" fill="black"/>
</svg>
