<svg width="27" height="28" viewBox="0 0 27 28" fill="none" xmlns="http://www.w3.org/2000/svg">
    <path d="M26.25 0.874972C26.25 0.725759 26.2119 0.579027 26.1392 0.448719C26.0665 0.318412 25.9617 0.208859 25.8347 0.130471C25.7077 0.0520833 25.5628 0.00746566 25.4138 0.0008584C25.2647 -0.00574887 25.1164 0.0258737 24.983 0.0927209L10.983 7.09273C10.8379 7.16547 10.7158 7.27716 10.6305 7.41531C10.5452 7.55346 10.5 7.71262 10.5 7.87498V13.37L0.598501 16.6705C0.424337 16.7285 0.272828 16.8398 0.165419 16.9887C0.0580092 17.1375 0.000139382 17.3164 0 17.5L0 27.125C0 27.3571 0.0921874 27.5796 0.256282 27.7437C0.420376 27.9078 0.642936 28 0.875001 28H16.625C16.8571 28 17.0796 27.9078 17.2437 27.7437C17.4078 27.5796 17.5 27.3571 17.5 27.125V24.5H19.25V27.125C19.25 27.3571 19.3422 27.5796 19.5063 27.7437C19.6704 27.9078 19.893 28 20.125 28H25.375C25.6071 28 25.8297 27.9078 25.9937 27.7437C26.1578 27.5796 26.25 27.3571 26.25 27.125V0.874972ZM3.5 19.25H5.25001V21H3.5V19.25ZM7.00001 19.25H8.75001V21H7.00001V19.25ZM5.25001 22.75V24.5H3.5V22.75H5.25001ZM7.00001 22.75H8.75001V24.5H7.00001V22.75ZM22.75 5.24998V6.99998H21V5.24998H22.75ZM14 8.74998H15.75V10.5H14V8.74998ZM15.75 12.25V14H14V12.25H15.75ZM14 15.75H15.75V17.5H14V15.75ZM17.5 15.75H19.25V17.5H17.5V15.75ZM15.75 19.25V21H14V19.25H15.75ZM17.5 19.25H19.25V21H17.5V19.25ZM22.75 15.75V17.5H21V15.75H22.75ZM21 19.25H22.75V21H21V19.25ZM17.5 12.25H19.25V14H17.5V12.25ZM22.75 12.25V14H21V12.25H22.75ZM19.25 8.74998V10.5H17.5V8.74998H19.25ZM21 8.74998H22.75V10.5H21V8.74998Z" fill="black"/>
</svg>
