<svg width="26" height="26" viewBox="0 0 26 26" fill="none" xmlns="http://www.w3.org/2000/svg">
    <path d="M0 26V5.77778H5.77778V0H20.2222V11.5556H26V26H14.4444V20.2222H11.5556V26H0ZM2.88889 23.1111H5.77778V20.2222H2.88889V23.1111ZM2.88889 17.3333H5.77778V14.4444H2.88889V17.3333ZM2.88889 11.5556H5.77778V8.66667H2.88889V11.5556ZM8.66667 17.3333H11.5556V14.4444H8.66667V17.3333ZM8.66667 11.5556H11.5556V8.66667H8.66667V11.5556ZM8.66667 5.77778H11.5556V2.88889H8.66667V5.77778ZM14.4444 17.3333H17.3333V14.4444H14.4444V17.3333ZM14.4444 11.5556H17.3333V8.66667H14.4444V11.5556ZM14.4444 5.77778H17.3333V2.88889H14.4444V5.77778ZM20.2222 23.1111H23.1111V20.2222H20.2222V23.1111ZM20.2222 17.3333H23.1111V14.4444H20.2222V17.3333Z" fill="black"/>
</svg>
